<svg xmlns="http://www.w3.org/2000/svg" xmlns:xlink="http://www.w3.org/1999/xlink" width="6000" zoomAndPan="magnify" viewBox="0 0 4500 1499.999933" height="2000" preserveAspectRatio="xMidYMid meet" version="1.0"><defs><g/><clipPath id="a9d6bdf03e"><rect x="0" width="489" y="0" height="618"/></clipPath></defs><g transform="matrix(1, 0, 0, 1, 416, 192)"><g clip-path="url(#a9d6bdf03e)"><g fill="#279256" fill-opacity="0.4"><g transform="translate(23.656361, 510.79914)"><g><path d="M 373.5 -143.96875 C 369.4375 -143.457031 363.976562 -142.648438 357.125 -141.546875 C 350.269531 -140.453125 344.726562 -138.890625 340.5 -136.859375 C 335.414062 -134.316406 331.816406 -130.71875 329.703125 -126.0625 C 327.585938 -121.40625 326.53125 -115.945312 326.53125 -109.6875 L 326.53125 -81.765625 C 326.53125 -61.453125 326.65625 -47.738281 326.90625 -40.625 C 327.164062 -33.519531 327.460938 -27.679688 327.796875 -23.109375 C 305.285156 -12.953125 282.859375 -5.164062 260.515625 0.25 C 238.171875 5.664062 216.25 8.375 194.75 8.375 C 171.726562 8.375 149.550781 4.0625 128.21875 -4.5625 C 106.894531 -13.195312 88.273438 -25.472656 72.359375 -41.390625 C 56.285156 -57.472656 43.507812 -77.023438 34.03125 -100.046875 C 24.550781 -123.066406 19.8125 -148.796875 19.8125 -177.234375 C 19.8125 -204.648438 24.335938 -230.082031 33.390625 -253.53125 C 42.441406 -276.976562 55.265625 -297.332031 71.859375 -314.59375 C 87.941406 -331.519531 107.113281 -344.679688 129.375 -354.078125 C 151.632812 -363.472656 175.457031 -368.171875 200.84375 -368.171875 C 221.15625 -368.171875 238.84375 -365.71875 253.90625 -360.8125 C 268.976562 -355.90625 282.269531 -349.976562 293.78125 -343.03125 L 304.1875 -360.296875 L 324.5 -360.296875 L 326.78125 -234.359375 L 305.96875 -234.359375 C 302.414062 -248.242188 298.015625 -261.914062 292.765625 -275.375 C 287.515625 -288.832031 280.742188 -300.890625 272.453125 -311.546875 C 264.160156 -322.210938 254.046875 -330.71875 242.109375 -337.0625 C 230.171875 -343.414062 215.910156 -346.59375 199.328125 -346.59375 C 181.210938 -346.59375 165.046875 -342.910156 150.828125 -335.546875 C 136.609375 -328.179688 124.25 -317.222656 113.75 -302.671875 C 103.425781 -288.617188 95.46875 -271.097656 89.875 -250.109375 C 84.289062 -229.117188 81.5 -205.671875 81.5 -179.765625 C 81.5 -156.921875 84.25 -135.382812 89.75 -115.15625 C 95.257812 -94.925781 103.257812 -77.445312 113.75 -62.71875 C 124.25 -47.65625 137.367188 -35.804688 153.109375 -27.171875 C 168.847656 -18.535156 186.707031 -14.21875 206.6875 -14.21875 C 221.582031 -14.21875 235.164062 -16.503906 247.4375 -21.078125 C 259.707031 -25.648438 268.382812 -30.472656 273.46875 -35.546875 C 274.820312 -44.347656 275.539062 -53.234375 275.625 -62.203125 C 275.707031 -71.179688 275.75 -78.800781 275.75 -85.0625 L 275.75 -104.859375 C 275.75 -111.972656 274.773438 -118.28125 272.828125 -123.78125 C 270.878906 -129.28125 266.859375 -133.300781 260.765625 -135.84375 C 255.179688 -138.382812 247.609375 -140.289062 238.046875 -141.5625 C 228.484375 -142.832031 220.992188 -143.632812 215.578125 -143.96875 L 215.578125 -162.5 L 373.5 -162.5 Z M 373.5 -143.96875 "/></g></g></g><g fill="#279256" fill-opacity="1"><g transform="translate(0.674547, 487.817325)"><g><path d="M 373.5 -143.96875 C 369.4375 -143.457031 363.976562 -142.648438 357.125 -141.546875 C 350.269531 -140.453125 344.726562 -138.890625 340.5 -136.859375 C 335.414062 -134.316406 331.816406 -130.71875 329.703125 -126.0625 C 327.585938 -121.40625 326.53125 -115.945312 326.53125 -109.6875 L 326.53125 -81.765625 C 326.53125 -61.453125 326.65625 -47.738281 326.90625 -40.625 C 327.164062 -33.519531 327.460938 -27.679688 327.796875 -23.109375 C 305.285156 -12.953125 282.859375 -5.164062 260.515625 0.25 C 238.171875 5.664062 216.25 8.375 194.75 8.375 C 171.726562 8.375 149.550781 4.0625 128.21875 -4.5625 C 106.894531 -13.195312 88.273438 -25.472656 72.359375 -41.390625 C 56.285156 -57.472656 43.507812 -77.023438 34.03125 -100.046875 C 24.550781 -123.066406 19.8125 -148.796875 19.8125 -177.234375 C 19.8125 -204.648438 24.335938 -230.082031 33.390625 -253.53125 C 42.441406 -276.976562 55.265625 -297.332031 71.859375 -314.59375 C 87.941406 -331.519531 107.113281 -344.679688 129.375 -354.078125 C 151.632812 -363.472656 175.457031 -368.171875 200.84375 -368.171875 C 221.15625 -368.171875 238.84375 -365.71875 253.90625 -360.8125 C 268.976562 -355.90625 282.269531 -349.976562 293.78125 -343.03125 L 304.1875 -360.296875 L 324.5 -360.296875 L 326.78125 -234.359375 L 305.96875 -234.359375 C 302.414062 -248.242188 298.015625 -261.914062 292.765625 -275.375 C 287.515625 -288.832031 280.742188 -300.890625 272.453125 -311.546875 C 264.160156 -322.210938 254.046875 -330.71875 242.109375 -337.0625 C 230.171875 -343.414062 215.910156 -346.59375 199.328125 -346.59375 C 181.210938 -346.59375 165.046875 -342.910156 150.828125 -335.546875 C 136.609375 -328.179688 124.25 -317.222656 113.75 -302.671875 C 103.425781 -288.617188 95.46875 -271.097656 89.875 -250.109375 C 84.289062 -229.117188 81.5 -205.671875 81.5 -179.765625 C 81.5 -156.921875 84.25 -135.382812 89.75 -115.15625 C 95.257812 -94.925781 103.257812 -77.445312 113.75 -62.71875 C 124.25 -47.65625 137.367188 -35.804688 153.109375 -27.171875 C 168.847656 -18.535156 186.707031 -14.21875 206.6875 -14.21875 C 221.582031 -14.21875 235.164062 -16.503906 247.4375 -21.078125 C 259.707031 -25.648438 268.382812 -30.472656 273.46875 -35.546875 C 274.820312 -44.347656 275.539062 -53.234375 275.625 -62.203125 C 275.707031 -71.179688 275.75 -78.800781 275.75 -85.0625 L 275.75 -104.859375 C 275.75 -111.972656 274.773438 -118.28125 272.828125 -123.78125 C 270.878906 -129.28125 266.859375 -133.300781 260.765625 -135.84375 C 255.179688 -138.382812 247.609375 -140.289062 238.046875 -141.5625 C 228.484375 -142.832031 220.992188 -143.632812 215.578125 -143.96875 L 215.578125 -162.5 L 373.5 -162.5 Z M 373.5 -143.96875 "/></g></g></g></g></g><g fill="#2aaa9e" fill-opacity="0.4"><g transform="translate(867.140425, 716.690601)"><g><path d="M 287.5 -140 C 287.5 -120.695312 284.4375 -101.722656 278.3125 -83.078125 C 272.195312 -64.429688 263.476562 -48.613281 252.15625 -35.625 C 239.351562 -20.78125 224.507812 -9.738281 207.625 -2.5 C 190.738281 4.726562 171.8125 8.34375 150.84375 8.34375 C 133.40625 8.34375 116.800781 5.050781 101.03125 -1.53125 C 85.257812 -8.113281 71.25 -17.71875 59 -30.34375 C 46.9375 -42.769531 37.332031 -57.9375 30.1875 -75.84375 C 23.050781 -93.75 19.484375 -113.832031 19.484375 -136.09375 C 19.484375 -178.957031 31.957031 -214.023438 56.90625 -241.296875 C 81.863281 -268.578125 114.570312 -282.21875 155.03125 -282.21875 C 193.4375 -282.21875 225.113281 -269.273438 250.0625 -243.390625 C 275.019531 -217.503906 287.5 -183.039062 287.5 -140 Z M 229.890625 -139.4375 C 229.890625 -153.351562 228.5 -168.054688 225.71875 -183.546875 C 222.9375 -199.046875 218.757812 -212.175781 213.1875 -222.9375 C 207.25 -234.4375 199.457031 -243.664062 189.8125 -250.625 C 180.164062 -257.582031 168.382812 -261.0625 154.46875 -261.0625 C 140.175781 -261.0625 127.972656 -257.535156 117.859375 -250.484375 C 107.753906 -243.429688 99.546875 -233.785156 93.234375 -221.546875 C 87.296875 -210.222656 83.117188 -197.320312 80.703125 -182.84375 C 78.296875 -168.375 77.09375 -154.367188 77.09375 -140.828125 C 77.09375 -123.015625 78.53125 -106.546875 81.40625 -91.421875 C 84.28125 -76.304688 88.875 -62.8125 95.1875 -50.9375 C 101.5 -39.0625 109.429688 -29.734375 118.984375 -22.953125 C 128.535156 -16.179688 140.363281 -12.796875 154.46875 -12.796875 C 177.664062 -12.796875 196.035156 -24.019531 209.578125 -46.46875 C 223.117188 -68.925781 229.890625 -99.914062 229.890625 -139.4375 Z M 229.890625 -139.4375 "/></g></g></g><g fill="#2aaa9e" fill-opacity="1"><g transform="translate(841.94974, 691.49992)"><g><path d="M 287.5 -140 C 287.5 -120.695312 284.4375 -101.722656 278.3125 -83.078125 C 272.195312 -64.429688 263.476562 -48.613281 252.15625 -35.625 C 239.351562 -20.78125 224.507812 -9.738281 207.625 -2.5 C 190.738281 4.726562 171.8125 8.34375 150.84375 8.34375 C 133.40625 8.34375 116.800781 5.050781 101.03125 -1.53125 C 85.257812 -8.113281 71.25 -17.71875 59 -30.34375 C 46.9375 -42.769531 37.332031 -57.9375 30.1875 -75.84375 C 23.050781 -93.75 19.484375 -113.832031 19.484375 -136.09375 C 19.484375 -178.957031 31.957031 -214.023438 56.90625 -241.296875 C 81.863281 -268.578125 114.570312 -282.21875 155.03125 -282.21875 C 193.4375 -282.21875 225.113281 -269.273438 250.0625 -243.390625 C 275.019531 -217.503906 287.5 -183.039062 287.5 -140 Z M 229.890625 -139.4375 C 229.890625 -153.351562 228.5 -168.054688 225.71875 -183.546875 C 222.9375 -199.046875 218.757812 -212.175781 213.1875 -222.9375 C 207.25 -234.4375 199.457031 -243.664062 189.8125 -250.625 C 180.164062 -257.582031 168.382812 -261.0625 154.46875 -261.0625 C 140.175781 -261.0625 127.972656 -257.535156 117.859375 -250.484375 C 107.753906 -243.429688 99.546875 -233.785156 93.234375 -221.546875 C 87.296875 -210.222656 83.117188 -197.320312 80.703125 -182.84375 C 78.296875 -168.375 77.09375 -154.367188 77.09375 -140.828125 C 77.09375 -123.015625 78.53125 -106.546875 81.40625 -91.421875 C 84.28125 -76.304688 88.875 -62.8125 95.1875 -50.9375 C 101.5 -39.0625 109.429688 -29.734375 118.984375 -22.953125 C 128.535156 -16.179688 140.363281 -12.796875 154.46875 -12.796875 C 177.664062 -12.796875 196.035156 -24.019531 209.578125 -46.46875 C 223.117188 -68.925781 229.890625 -99.914062 229.890625 -139.4375 Z M 229.890625 -139.4375 "/></g></g></g><g fill="#e91e63" fill-opacity="0.4"><g transform="translate(1218.970198, 715.126457)"><g><path d="M 263.640625 -64.515625 C 252.140625 -42.640625 236.75 -25.210938 217.46875 -12.234375 C 198.1875 0.742188 176.03125 7.234375 151 7.234375 C 128.9375 7.234375 109.609375 3.34375 93.015625 -4.4375 C 76.429688 -12.226562 62.757812 -22.800781 52 -36.15625 C 41.25 -49.5 33.226562 -65.070312 27.9375 -82.875 C 22.65625 -100.675781 20.015625 -119.492188 20.015625 -139.328125 C 20.015625 -157.128906 22.84375 -174.601562 28.5 -191.75 C 34.15625 -208.894531 42.453125 -224.328125 53.390625 -238.046875 C 63.960938 -251.210938 77.082031 -261.828125 92.75 -269.890625 C 108.414062 -277.960938 125.984375 -282 145.453125 -282 C 165.472656 -282 182.617188 -278.84375 196.890625 -272.53125 C 211.171875 -266.226562 222.757812 -257.609375 231.65625 -246.671875 C 240.1875 -236.285156 246.535156 -224.046875 250.703125 -209.953125 C 254.878906 -195.867188 256.96875 -180.578125 256.96875 -164.078125 L 256.96875 -145.71875 L 75.359375 -145.71875 C 75.359375 -127.738281 77.070312 -111.425781 80.5 -96.78125 C 83.9375 -82.132812 89.363281 -69.25 96.78125 -58.125 C 104.007812 -47.375 113.460938 -38.890625 125.140625 -32.671875 C 136.828125 -26.460938 150.734375 -23.359375 166.859375 -23.359375 C 183.359375 -23.359375 197.585938 -27.203125 209.546875 -34.890625 C 221.503906 -42.585938 233.046875 -56.453125 244.171875 -76.484375 Z M 202.171875 -169.078125 C 202.171875 -179.460938 201.289062 -190.585938 199.53125 -202.453125 C 197.769531 -214.316406 194.941406 -224.238281 191.046875 -232.21875 C 186.785156 -240.738281 180.945312 -247.6875 173.53125 -253.0625 C 166.113281 -258.445312 156.566406 -261.140625 144.890625 -261.140625 C 125.421875 -261.140625 109.242188 -253.023438 96.359375 -236.796875 C 83.472656 -220.578125 76.472656 -198.003906 75.359375 -169.078125 Z M 202.171875 -169.078125 "/></g></g></g><g fill="#e53970" fill-opacity="1"><g transform="translate(1193.799144, 689.955441)"><g><path d="M 263.640625 -64.515625 C 252.140625 -42.640625 236.75 -25.210938 217.46875 -12.234375 C 198.1875 0.742188 176.03125 7.234375 151 7.234375 C 128.9375 7.234375 109.609375 3.34375 93.015625 -4.4375 C 76.429688 -12.226562 62.757812 -22.800781 52 -36.15625 C 41.25 -49.5 33.226562 -65.070312 27.9375 -82.875 C 22.65625 -100.675781 20.015625 -119.492188 20.015625 -139.328125 C 20.015625 -157.128906 22.84375 -174.601562 28.5 -191.75 C 34.15625 -208.894531 42.453125 -224.328125 53.390625 -238.046875 C 63.960938 -251.210938 77.082031 -261.828125 92.75 -269.890625 C 108.414062 -277.960938 125.984375 -282 145.453125 -282 C 165.472656 -282 182.617188 -278.84375 196.890625 -272.53125 C 211.171875 -266.226562 222.757812 -257.609375 231.65625 -246.671875 C 240.1875 -236.285156 246.535156 -224.046875 250.703125 -209.953125 C 254.878906 -195.867188 256.96875 -180.578125 256.96875 -164.078125 L 256.96875 -145.71875 L 75.359375 -145.71875 C 75.359375 -127.738281 77.070312 -111.425781 80.5 -96.78125 C 83.9375 -82.132812 89.363281 -69.25 96.78125 -58.125 C 104.007812 -47.375 113.460938 -38.890625 125.140625 -32.671875 C 136.828125 -26.460938 150.734375 -23.359375 166.859375 -23.359375 C 183.359375 -23.359375 197.585938 -27.203125 209.546875 -34.890625 C 221.503906 -42.585938 233.046875 -56.453125 244.171875 -76.484375 Z M 202.171875 -169.078125 C 202.171875 -179.460938 201.289062 -190.585938 199.53125 -202.453125 C 197.769531 -214.316406 194.941406 -224.238281 191.046875 -232.21875 C 186.785156 -240.738281 180.945312 -247.6875 173.53125 -253.0625 C 166.113281 -258.445312 156.566406 -261.140625 144.890625 -261.140625 C 125.421875 -261.140625 109.242188 -253.023438 96.359375 -236.796875 C 83.472656 -220.578125 76.472656 -198.003906 75.359375 -169.078125 Z M 202.171875 -169.078125 "/></g></g></g><g fill="#1f3f75" fill-opacity="0.4"><g transform="translate(1551.284735, 717.303799)"><g><path d="M 280.203125 -5.015625 C 271.472656 -1.859375 263.8125 0.691406 257.21875 2.640625 C 250.632812 4.597656 243.160156 5.578125 234.796875 5.578125 C 220.316406 5.578125 208.757812 2.1875 200.125 -4.59375 C 191.488281 -11.375 185.960938 -21.265625 183.546875 -34.265625 L 181.875 -34.265625 C 169.8125 -20.890625 156.863281 -10.671875 143.03125 -3.609375 C 129.195312 3.441406 112.53125 6.96875 93.03125 6.96875 C 72.414062 6.96875 55.46875 0.65625 42.1875 -11.96875 C 28.914062 -24.601562 22.28125 -41.132812 22.28125 -61.5625 C 22.28125 -72.144531 23.765625 -81.613281 26.734375 -89.96875 C 29.710938 -98.320312 34.171875 -105.84375 40.109375 -112.53125 C 44.753906 -118.101562 50.878906 -123.066406 58.484375 -127.421875 C 66.097656 -131.785156 73.25 -135.269531 79.9375 -137.875 C 88.289062 -141.03125 105.234375 -146.878906 130.765625 -155.421875 C 156.296875 -163.960938 173.519531 -170.644531 182.4375 -175.46875 L 182.4375 -203.046875 C 182.4375 -205.460938 181.925781 -210.101562 180.90625 -216.96875 C 179.882812 -223.84375 177.703125 -230.34375 174.359375 -236.46875 C 170.648438 -243.34375 165.40625 -249.332031 158.625 -254.4375 C 151.84375 -259.539062 142.234375 -262.09375 129.796875 -262.09375 C 121.253906 -262.09375 113.316406 -260.65625 105.984375 -257.78125 C 98.648438 -254.90625 93.5 -251.890625 90.53125 -248.734375 C 90.53125 -245.015625 91.410156 -239.535156 93.171875 -232.296875 C 94.929688 -225.054688 95.8125 -218.375 95.8125 -212.25 C 95.8125 -205.75 92.882812 -199.804688 87.03125 -194.421875 C 81.1875 -189.035156 73.066406 -186.34375 62.671875 -186.34375 C 53.390625 -186.34375 46.566406 -189.632812 42.203125 -196.21875 C 37.835938 -202.8125 35.65625 -210.195312 35.65625 -218.375 C 35.65625 -226.914062 38.671875 -235.082031 44.703125 -242.875 C 50.734375 -250.675781 58.578125 -257.640625 68.234375 -263.765625 C 76.597656 -268.972656 86.71875 -273.382812 98.59375 -277 C 110.476562 -280.625 122.085938 -282.4375 133.421875 -282.4375 C 149.015625 -282.4375 162.613281 -281.367188 174.21875 -279.234375 C 185.820312 -277.097656 196.363281 -272.5 205.84375 -265.4375 C 215.3125 -258.570312 222.503906 -249.242188 227.421875 -237.453125 C 232.335938 -225.660156 234.796875 -210.476562 234.796875 -191.90625 C 234.796875 -165.351562 234.519531 -141.816406 233.96875 -121.296875 C 233.414062 -100.785156 233.140625 -78.363281 233.140625 -54.03125 C 233.140625 -46.789062 234.390625 -41.035156 236.890625 -36.765625 C 239.398438 -32.492188 243.253906 -28.875 248.453125 -25.90625 C 251.234375 -24.226562 255.640625 -23.296875 261.671875 -23.109375 C 267.710938 -22.929688 273.890625 -22.84375 280.203125 -22.84375 Z M 183 -152.078125 C 167.21875 -147.429688 153.382812 -142.878906 141.5 -138.421875 C 129.613281 -133.972656 118.5625 -128.40625 108.34375 -121.71875 C 99.0625 -115.40625 91.726562 -107.929688 86.34375 -99.296875 C 80.957031 -90.660156 78.265625 -80.398438 78.265625 -68.515625 C 78.265625 -53.109375 82.300781 -41.78125 90.375 -34.53125 C 98.457031 -27.289062 108.71875 -23.671875 121.15625 -23.671875 C 134.34375 -23.671875 145.945312 -26.875 155.96875 -33.28125 C 166 -39.6875 174.453125 -47.253906 181.328125 -55.984375 Z M 183 -152.078125 "/></g></g></g><g fill="#1f3f75" fill-opacity="1"><g transform="translate(1526.074658, 692.093769)"><g><path d="M 280.203125 -5.015625 C 271.472656 -1.859375 263.8125 0.691406 257.21875 2.640625 C 250.632812 4.597656 243.160156 5.578125 234.796875 5.578125 C 220.316406 5.578125 208.757812 2.1875 200.125 -4.59375 C 191.488281 -11.375 185.960938 -21.265625 183.546875 -34.265625 L 181.875 -34.265625 C 169.8125 -20.890625 156.863281 -10.671875 143.03125 -3.609375 C 129.195312 3.441406 112.53125 6.96875 93.03125 6.96875 C 72.414062 6.96875 55.46875 0.65625 42.1875 -11.96875 C 28.914062 -24.601562 22.28125 -41.132812 22.28125 -61.5625 C 22.28125 -72.144531 23.765625 -81.613281 26.734375 -89.96875 C 29.710938 -98.320312 34.171875 -105.84375 40.109375 -112.53125 C 44.753906 -118.101562 50.878906 -123.066406 58.484375 -127.421875 C 66.097656 -131.785156 73.25 -135.269531 79.9375 -137.875 C 88.289062 -141.03125 105.234375 -146.878906 130.765625 -155.421875 C 156.296875 -163.960938 173.519531 -170.644531 182.4375 -175.46875 L 182.4375 -203.046875 C 182.4375 -205.460938 181.925781 -210.101562 180.90625 -216.96875 C 179.882812 -223.84375 177.703125 -230.34375 174.359375 -236.46875 C 170.648438 -243.34375 165.40625 -249.332031 158.625 -254.4375 C 151.84375 -259.539062 142.234375 -262.09375 129.796875 -262.09375 C 121.253906 -262.09375 113.316406 -260.65625 105.984375 -257.78125 C 98.648438 -254.90625 93.5 -251.890625 90.53125 -248.734375 C 90.53125 -245.015625 91.410156 -239.535156 93.171875 -232.296875 C 94.929688 -225.054688 95.8125 -218.375 95.8125 -212.25 C 95.8125 -205.75 92.882812 -199.804688 87.03125 -194.421875 C 81.1875 -189.035156 73.066406 -186.34375 62.671875 -186.34375 C 53.390625 -186.34375 46.566406 -189.632812 42.203125 -196.21875 C 37.835938 -202.8125 35.65625 -210.195312 35.65625 -218.375 C 35.65625 -226.914062 38.671875 -235.082031 44.703125 -242.875 C 50.734375 -250.675781 58.578125 -257.640625 68.234375 -263.765625 C 76.597656 -268.972656 86.71875 -273.382812 98.59375 -277 C 110.476562 -280.625 122.085938 -282.4375 133.421875 -282.4375 C 149.015625 -282.4375 162.613281 -281.367188 174.21875 -279.234375 C 185.820312 -277.097656 196.363281 -272.5 205.84375 -265.4375 C 215.3125 -258.570312 222.503906 -249.242188 227.421875 -237.453125 C 232.335938 -225.660156 234.796875 -210.476562 234.796875 -191.90625 C 234.796875 -165.351562 234.519531 -141.816406 233.96875 -121.296875 C 233.414062 -100.785156 233.140625 -78.363281 233.140625 -54.03125 C 233.140625 -46.789062 234.390625 -41.035156 236.890625 -36.765625 C 239.398438 -32.492188 243.253906 -28.875 248.453125 -25.90625 C 251.234375 -24.226562 255.640625 -23.296875 261.671875 -23.109375 C 267.710938 -22.929688 273.890625 -22.84375 280.203125 -22.84375 Z M 183 -152.078125 C 167.21875 -147.429688 153.382812 -142.878906 141.5 -138.421875 C 129.613281 -133.972656 118.5625 -128.40625 108.34375 -121.71875 C 99.0625 -115.40625 91.726562 -107.929688 86.34375 -99.296875 C 80.957031 -90.660156 78.265625 -80.398438 78.265625 -68.515625 C 78.265625 -53.109375 82.300781 -41.78125 90.375 -34.53125 C 98.457031 -27.289062 108.71875 -23.671875 121.15625 -23.671875 C 134.34375 -23.671875 145.945312 -26.875 155.96875 -33.28125 C 166 -39.6875 174.453125 -47.253906 181.328125 -55.984375 Z M 183 -152.078125 "/></g></g></g><g fill="#ee7811" fill-opacity="0.4"><g transform="translate(1914.929113, 715.983638)"><g><path d="M 237.53125 0 L 15.3125 0 L 15.3125 -14.765625 L 170.703125 -252.015625 L 132.265625 -252.015625 C 116.117188 -252.015625 103.492188 -251.734375 94.390625 -251.171875 C 85.296875 -250.617188 76.945312 -248.765625 69.34375 -245.609375 C 64.144531 -243.566406 59.269531 -237.71875 54.71875 -228.0625 C 50.164062 -218.40625 46.222656 -205.78125 42.890625 -190.1875 L 25.890625 -190.1875 L 25.890625 -274.5625 L 235.859375 -274.5625 L 235.859375 -263.15625 L 77.96875 -22.5625 C 84.65625 -22.375 91.988281 -22.234375 99.96875 -22.140625 C 107.945312 -22.046875 116.578125 -22 125.859375 -22 C 133.285156 -22 141.035156 -22.09375 149.109375 -22.28125 C 157.191406 -22.46875 167.546875 -22.929688 180.171875 -23.671875 C 187.597656 -24.035156 193.210938 -26.539062 197.015625 -31.1875 C 200.816406 -35.832031 203.738281 -41.125 205.78125 -47.0625 C 207.820312 -52.445312 210.28125 -59.875 213.15625 -69.34375 C 216.039062 -78.8125 218.597656 -88 220.828125 -96.90625 L 237.53125 -96.90625 Z M 237.53125 0 "/></g></g></g><g fill="#ee7811" fill-opacity="1"><g transform="translate(1889.725251, 690.779774)"><g><path d="M 237.53125 0 L 15.3125 0 L 15.3125 -14.765625 L 170.703125 -252.015625 L 132.265625 -252.015625 C 116.117188 -252.015625 103.492188 -251.734375 94.390625 -251.171875 C 85.296875 -250.617188 76.945312 -248.765625 69.34375 -245.609375 C 64.144531 -243.566406 59.269531 -237.71875 54.71875 -228.0625 C 50.164062 -218.40625 46.222656 -205.78125 42.890625 -190.1875 L 25.890625 -190.1875 L 25.890625 -274.5625 L 235.859375 -274.5625 L 235.859375 -263.15625 L 77.96875 -22.5625 C 84.65625 -22.375 91.988281 -22.234375 99.96875 -22.140625 C 107.945312 -22.046875 116.578125 -22 125.859375 -22 C 133.285156 -22 141.035156 -22.09375 149.109375 -22.28125 C 157.191406 -22.46875 167.546875 -22.929688 180.171875 -23.671875 C 187.597656 -24.035156 193.210938 -26.539062 197.015625 -31.1875 C 200.816406 -35.832031 203.738281 -41.125 205.78125 -47.0625 C 207.820312 -52.445312 210.28125 -59.875 213.15625 -69.34375 C 216.039062 -78.8125 218.597656 -88 220.828125 -96.90625 L 237.53125 -96.90625 Z M 237.53125 0 "/></g></g></g><g fill="#279256" fill-opacity="0.4"><g transform="translate(2243.588334, 718.167501)"><g><path d="M -0.828125 89.6875 C -0.828125 80.394531 1.722656 72.820312 6.828125 66.96875 C 11.929688 61.125 18.289062 58.203125 25.90625 58.203125 C 31.84375 58.203125 36.945312 59.316406 41.21875 61.546875 C 45.488281 63.773438 49.296875 66.65625 52.640625 70.1875 C 55.421875 72.96875 58.390625 76.769531 61.546875 81.59375 C 64.703125 86.425781 67.210938 90.421875 69.078125 93.578125 C 78.359375 88.566406 89.453125 75.476562 102.359375 54.3125 C 115.265625 33.144531 124.59375 14.578125 130.34375 -1.390625 C 112.707031 -45.398438 96.738281 -84.765625 82.4375 -119.484375 C 68.144531 -154.203125 53.195312 -190.128906 37.59375 -227.265625 C 34.070312 -235.804688 28.128906 -242.441406 19.765625 -247.171875 C 11.410156 -251.910156 3.054688 -254.929688 -5.296875 -256.234375 L -5.296875 -274.625 L 120.046875 -274.625 L 120.046875 -255.125 C 114.472656 -254.9375 107.785156 -253.773438 99.984375 -251.640625 C 92.191406 -249.503906 88.296875 -247.046875 88.296875 -244.265625 C 88.296875 -243.148438 88.710938 -241.289062 89.546875 -238.6875 C 90.378906 -236.09375 91.351562 -233.398438 92.46875 -230.609375 C 99.519531 -212.234375 110.285156 -185.726562 124.765625 -151.09375 C 139.253906 -116.46875 150.492188 -88.753906 158.484375 -67.953125 C 166.835938 -87.828125 175.515625 -108.394531 184.515625 -129.65625 C 193.523438 -150.914062 203.597656 -176.023438 214.734375 -204.984375 C 216.035156 -208.515625 217.890625 -213.390625 220.296875 -219.609375 C 222.710938 -225.828125 223.921875 -231.164062 223.921875 -235.625 C 223.921875 -240.457031 219.695312 -244.960938 211.25 -249.140625 C 202.800781 -253.316406 194.773438 -255.867188 187.171875 -256.796875 L 187.171875 -274.625 L 289.109375 -274.625 L 289.109375 -257.34375 C 283.535156 -256.414062 276.195312 -253.210938 267.09375 -247.734375 C 258 -242.265625 251.222656 -234.515625 246.765625 -224.484375 C 224.671875 -173.234375 205.035156 -126.535156 187.859375 -84.390625 C 170.679688 -42.242188 157.640625 -11.234375 148.734375 8.640625 C 137.035156 34.628906 126.585938 54.910156 117.390625 69.484375 C 108.203125 84.066406 99.242188 95.535156 90.515625 103.890625 C 81.972656 111.679688 74.21875 116.921875 67.25 119.609375 C 60.289062 122.304688 53.097656 123.65625 45.671875 123.65625 C 31.191406 123.65625 19.820312 120.21875 11.5625 113.34375 C 3.300781 106.476562 -0.828125 98.59375 -0.828125 89.6875 Z M -0.828125 89.6875 "/></g></g></g><g fill="#279256" fill-opacity="1"><g transform="translate(2218.379432, 692.958523)"><g><path d="M -0.828125 89.6875 C -0.828125 80.394531 1.722656 72.820312 6.828125 66.96875 C 11.929688 61.125 18.289062 58.203125 25.90625 58.203125 C 31.84375 58.203125 36.945312 59.316406 41.21875 61.546875 C 45.488281 63.773438 49.296875 66.65625 52.640625 70.1875 C 55.421875 72.96875 58.390625 76.769531 61.546875 81.59375 C 64.703125 86.425781 67.210938 90.421875 69.078125 93.578125 C 78.359375 88.566406 89.453125 75.476562 102.359375 54.3125 C 115.265625 33.144531 124.59375 14.578125 130.34375 -1.390625 C 112.707031 -45.398438 96.738281 -84.765625 82.4375 -119.484375 C 68.144531 -154.203125 53.195312 -190.128906 37.59375 -227.265625 C 34.070312 -235.804688 28.128906 -242.441406 19.765625 -247.171875 C 11.410156 -251.910156 3.054688 -254.929688 -5.296875 -256.234375 L -5.296875 -274.625 L 120.046875 -274.625 L 120.046875 -255.125 C 114.472656 -254.9375 107.785156 -253.773438 99.984375 -251.640625 C 92.191406 -249.503906 88.296875 -247.046875 88.296875 -244.265625 C 88.296875 -243.148438 88.710938 -241.289062 89.546875 -238.6875 C 90.378906 -236.09375 91.351562 -233.398438 92.46875 -230.609375 C 99.519531 -212.234375 110.285156 -185.726562 124.765625 -151.09375 C 139.253906 -116.46875 150.492188 -88.753906 158.484375 -67.953125 C 166.835938 -87.828125 175.515625 -108.394531 184.515625 -129.65625 C 193.523438 -150.914062 203.597656 -176.023438 214.734375 -204.984375 C 216.035156 -208.515625 217.890625 -213.390625 220.296875 -219.609375 C 222.710938 -225.828125 223.921875 -231.164062 223.921875 -235.625 C 223.921875 -240.457031 219.695312 -244.960938 211.25 -249.140625 C 202.800781 -253.316406 194.773438 -255.867188 187.171875 -256.796875 L 187.171875 -274.625 L 289.109375 -274.625 L 289.109375 -257.34375 C 283.535156 -256.414062 276.195312 -253.210938 267.09375 -247.734375 C 258 -242.265625 251.222656 -234.515625 246.765625 -224.484375 C 224.671875 -173.234375 205.035156 -126.535156 187.859375 -84.390625 C 170.679688 -42.242188 157.640625 -11.234375 148.734375 8.640625 C 137.035156 34.628906 126.585938 54.910156 117.390625 69.484375 C 108.203125 84.066406 99.242188 95.535156 90.515625 103.890625 C 81.972656 111.679688 74.21875 116.921875 67.25 119.609375 C 60.289062 122.304688 53.097656 123.65625 45.671875 123.65625 C 31.191406 123.65625 19.820312 120.21875 11.5625 113.34375 C 3.300781 106.476562 -0.828125 98.59375 -0.828125 89.6875 Z M -0.828125 89.6875 "/></g></g></g><g fill="#6fcf93" fill-opacity="0.4"><g transform="translate(3113.513976, 718.107794)"><g><path d="M 279.984375 -5.015625 C 271.265625 -1.859375 263.613281 0.691406 257.03125 2.640625 C 250.445312 4.585938 242.976562 5.5625 234.625 5.5625 C 220.15625 5.5625 208.601562 2.175781 199.96875 -4.59375 C 191.34375 -11.363281 185.820312 -21.242188 183.40625 -34.234375 L 181.75 -34.234375 C 169.6875 -20.867188 156.742188 -10.660156 142.921875 -3.609375 C 129.097656 3.429688 112.441406 6.953125 92.953125 6.953125 C 72.359375 6.953125 55.425781 0.644531 42.15625 -11.96875 C 28.894531 -24.582031 22.265625 -41.097656 22.265625 -61.515625 C 22.265625 -72.085938 23.75 -81.546875 26.71875 -89.890625 C 29.6875 -98.242188 34.140625 -105.757812 40.078125 -112.4375 C 44.710938 -118.007812 50.832031 -122.972656 58.4375 -127.328125 C 66.050781 -131.691406 73.195312 -135.171875 79.875 -137.765625 C 88.226562 -140.921875 105.160156 -146.765625 130.671875 -155.296875 C 156.179688 -163.835938 173.390625 -170.519531 182.296875 -175.34375 L 182.296875 -202.890625 C 182.296875 -205.304688 181.785156 -209.945312 180.765625 -216.8125 C 179.742188 -223.675781 177.566406 -230.171875 174.234375 -236.296875 C 170.515625 -243.160156 165.269531 -249.144531 158.5 -254.25 C 151.726562 -259.351562 142.128906 -261.90625 129.703125 -261.90625 C 121.160156 -261.90625 113.222656 -260.460938 105.890625 -257.578125 C 98.566406 -254.703125 93.421875 -251.691406 90.453125 -248.546875 C 90.453125 -244.828125 91.332031 -239.347656 93.09375 -232.109375 C 94.863281 -224.878906 95.75 -218.203125 95.75 -212.078125 C 95.75 -205.585938 92.820312 -199.648438 86.96875 -194.265625 C 81.125 -188.890625 73.007812 -186.203125 62.625 -186.203125 C 53.34375 -186.203125 46.519531 -189.492188 42.15625 -196.078125 C 37.800781 -202.660156 35.625 -210.035156 35.625 -218.203125 C 35.625 -226.734375 38.640625 -234.894531 44.671875 -242.6875 C 50.703125 -250.488281 58.539062 -257.445312 68.1875 -263.5625 C 76.539062 -268.757812 86.65625 -273.164062 98.53125 -276.78125 C 110.40625 -280.40625 122 -282.21875 133.3125 -282.21875 C 148.894531 -282.21875 162.484375 -281.148438 174.078125 -279.015625 C 185.679688 -276.878906 196.210938 -272.285156 205.671875 -265.234375 C 215.140625 -258.367188 222.332031 -249.046875 227.25 -237.265625 C 232.164062 -225.484375 234.625 -210.316406 234.625 -191.765625 C 234.625 -165.234375 234.34375 -141.710938 233.78125 -121.203125 C 233.226562 -100.703125 232.953125 -78.300781 232.953125 -54 C 232.953125 -46.757812 234.203125 -41.003906 236.703125 -36.734375 C 239.210938 -32.472656 243.066406 -28.859375 248.265625 -25.890625 C 251.046875 -24.210938 255.453125 -23.28125 261.484375 -23.09375 C 267.515625 -22.914062 273.679688 -22.828125 279.984375 -22.828125 Z M 182.859375 -151.96875 C 167.085938 -147.320312 153.265625 -142.769531 141.390625 -138.3125 C 129.515625 -133.863281 118.472656 -128.300781 108.265625 -121.625 C 98.984375 -115.3125 91.648438 -107.84375 86.265625 -99.21875 C 80.890625 -90.59375 78.203125 -80.34375 78.203125 -68.46875 C 78.203125 -53.0625 82.238281 -41.738281 90.3125 -34.5 C 98.382812 -27.269531 108.632812 -23.65625 121.0625 -23.65625 C 134.238281 -23.65625 145.835938 -26.851562 155.859375 -33.25 C 165.878906 -39.65625 174.320312 -47.21875 181.1875 -55.9375 Z M 182.859375 -151.96875 "/></g></g></g><g fill="#6fcf93" fill-opacity="1"><g transform="translate(3088.323338, 692.91712)"><g><path d="M 279.984375 -5.015625 C 271.265625 -1.859375 263.613281 0.691406 257.03125 2.640625 C 250.445312 4.585938 242.976562 5.5625 234.625 5.5625 C 220.15625 5.5625 208.601562 2.175781 199.96875 -4.59375 C 191.34375 -11.363281 185.820312 -21.242188 183.40625 -34.234375 L 181.75 -34.234375 C 169.6875 -20.867188 156.742188 -10.660156 142.921875 -3.609375 C 129.097656 3.429688 112.441406 6.953125 92.953125 6.953125 C 72.359375 6.953125 55.425781 0.644531 42.15625 -11.96875 C 28.894531 -24.582031 22.265625 -41.097656 22.265625 -61.515625 C 22.265625 -72.085938 23.75 -81.546875 26.71875 -89.890625 C 29.6875 -98.242188 34.140625 -105.757812 40.078125 -112.4375 C 44.710938 -118.007812 50.832031 -122.972656 58.4375 -127.328125 C 66.050781 -131.691406 73.195312 -135.171875 79.875 -137.765625 C 88.226562 -140.921875 105.160156 -146.765625 130.671875 -155.296875 C 156.179688 -163.835938 173.390625 -170.519531 182.296875 -175.34375 L 182.296875 -202.890625 C 182.296875 -205.304688 181.785156 -209.945312 180.765625 -216.8125 C 179.742188 -223.675781 177.566406 -230.171875 174.234375 -236.296875 C 170.515625 -243.160156 165.269531 -249.144531 158.5 -254.25 C 151.726562 -259.351562 142.128906 -261.90625 129.703125 -261.90625 C 121.160156 -261.90625 113.222656 -260.460938 105.890625 -257.578125 C 98.566406 -254.703125 93.421875 -251.691406 90.453125 -248.546875 C 90.453125 -244.828125 91.332031 -239.347656 93.09375 -232.109375 C 94.863281 -224.878906 95.75 -218.203125 95.75 -212.078125 C 95.75 -205.585938 92.820312 -199.648438 86.96875 -194.265625 C 81.125 -188.890625 73.007812 -186.203125 62.625 -186.203125 C 53.34375 -186.203125 46.519531 -189.492188 42.15625 -196.078125 C 37.800781 -202.660156 35.625 -210.035156 35.625 -218.203125 C 35.625 -226.734375 38.640625 -234.894531 44.671875 -242.6875 C 50.703125 -250.488281 58.539062 -257.445312 68.1875 -263.5625 C 76.539062 -268.757812 86.65625 -273.164062 98.53125 -276.78125 C 110.40625 -280.40625 122 -282.21875 133.3125 -282.21875 C 148.894531 -282.21875 162.484375 -281.148438 174.078125 -279.015625 C 185.679688 -276.878906 196.210938 -272.285156 205.671875 -265.234375 C 215.140625 -258.367188 222.332031 -249.046875 227.25 -237.265625 C 232.164062 -225.484375 234.625 -210.316406 234.625 -191.765625 C 234.625 -165.234375 234.34375 -141.710938 233.78125 -121.203125 C 233.226562 -100.703125 232.953125 -78.300781 232.953125 -54 C 232.953125 -46.757812 234.203125 -41.003906 236.703125 -36.734375 C 239.210938 -32.472656 243.066406 -28.859375 248.265625 -25.890625 C 251.046875 -24.210938 255.453125 -23.28125 261.484375 -23.09375 C 267.515625 -22.914062 273.679688 -22.828125 279.984375 -22.828125 Z M 182.859375 -151.96875 C 167.085938 -147.320312 153.265625 -142.769531 141.390625 -138.3125 C 129.515625 -133.863281 118.472656 -128.300781 108.265625 -121.625 C 98.984375 -115.3125 91.648438 -107.84375 86.265625 -99.21875 C 80.890625 -90.59375 78.203125 -80.34375 78.203125 -68.46875 C 78.203125 -53.0625 82.238281 -41.738281 90.3125 -34.5 C 98.382812 -27.269531 108.632812 -23.65625 121.0625 -23.65625 C 134.238281 -23.65625 145.835938 -26.851562 155.859375 -33.25 C 165.878906 -39.65625 174.320312 -47.21875 181.1875 -55.9375 Z M 182.859375 -151.96875 "/></g></g></g><g fill="#279256" fill-opacity="0.4"><g transform="translate(3458.514186, 715.940602)"><g><path d="M 230.171875 -239.078125 C 230.171875 -229.617188 227.847656 -221.222656 223.203125 -213.890625 C 218.566406 -206.554688 211.425781 -202.890625 201.78125 -202.890625 C 191.394531 -202.890625 183.460938 -205.578125 177.984375 -210.953125 C 172.515625 -216.335938 169.78125 -222.28125 169.78125 -228.78125 C 169.78125 -232.863281 170.101562 -236.570312 170.75 -239.90625 C 171.394531 -243.25 172 -246.59375 172.5625 -249.9375 C 163.84375 -249.9375 153.632812 -246.410156 141.9375 -239.359375 C 130.25 -232.304688 120.320312 -222.285156 112.15625 -209.296875 L 112.15625 -49.546875 C 112.15625 -43.046875 113.40625 -37.753906 115.90625 -33.671875 C 118.414062 -29.585938 122.363281 -26.53125 127.75 -24.5 C 132.382812 -22.632812 138.363281 -21.238281 145.6875 -20.3125 C 153.019531 -19.382812 159.378906 -18.738281 164.765625 -18.375 L 164.765625 0 L 20.046875 0 L 20.046875 -18.375 C 24.304688 -18.738281 28.707031 -19.109375 33.25 -19.484375 C 37.800781 -19.859375 41.75 -20.597656 45.09375 -21.703125 C 50.28125 -23.378906 54.125 -26.300781 56.625 -30.46875 C 59.132812 -34.644531 60.390625 -40.078125 60.390625 -46.765625 L 60.390625 -216.25 C 60.390625 -222.007812 59.046875 -227.671875 56.359375 -233.234375 C 53.671875 -238.796875 49.914062 -243.25 45.09375 -246.59375 C 41.5625 -248.820312 37.382812 -250.445312 32.5625 -251.46875 C 27.738281 -252.488281 22.546875 -253.179688 16.984375 -253.546875 L 16.984375 -271.640625 L 108.265625 -277.765625 L 112.15625 -273.875 L 112.15625 -235.1875 L 113.5625 -235.1875 C 125.0625 -250.207031 137.859375 -261.613281 151.953125 -269.40625 C 166.054688 -277.207031 178.957031 -281.109375 190.65625 -281.109375 C 202.34375 -281.109375 211.847656 -277.300781 219.171875 -269.6875 C 226.503906 -262.082031 230.171875 -251.878906 230.171875 -239.078125 Z M 230.171875 -239.078125 "/></g></g></g><g fill="#279256" fill-opacity="1"><g transform="translate(3433.323548, 690.749921)"><g><path d="M 230.171875 -239.078125 C 230.171875 -229.617188 227.847656 -221.222656 223.203125 -213.890625 C 218.566406 -206.554688 211.425781 -202.890625 201.78125 -202.890625 C 191.394531 -202.890625 183.460938 -205.578125 177.984375 -210.953125 C 172.515625 -216.335938 169.78125 -222.28125 169.78125 -228.78125 C 169.78125 -232.863281 170.101562 -236.570312 170.75 -239.90625 C 171.394531 -243.25 172 -246.59375 172.5625 -249.9375 C 163.84375 -249.9375 153.632812 -246.410156 141.9375 -239.359375 C 130.25 -232.304688 120.320312 -222.285156 112.15625 -209.296875 L 112.15625 -49.546875 C 112.15625 -43.046875 113.40625 -37.753906 115.90625 -33.671875 C 118.414062 -29.585938 122.363281 -26.53125 127.75 -24.5 C 132.382812 -22.632812 138.363281 -21.238281 145.6875 -20.3125 C 153.019531 -19.382812 159.378906 -18.738281 164.765625 -18.375 L 164.765625 0 L 20.046875 0 L 20.046875 -18.375 C 24.304688 -18.738281 28.707031 -19.109375 33.25 -19.484375 C 37.800781 -19.859375 41.75 -20.597656 45.09375 -21.703125 C 50.28125 -23.378906 54.125 -26.300781 56.625 -30.46875 C 59.132812 -34.644531 60.390625 -40.078125 60.390625 -46.765625 L 60.390625 -216.25 C 60.390625 -222.007812 59.046875 -227.671875 56.359375 -233.234375 C 53.671875 -238.796875 49.914062 -243.25 45.09375 -246.59375 C 41.5625 -248.820312 37.382812 -250.445312 32.5625 -251.46875 C 27.738281 -252.488281 22.546875 -253.179688 16.984375 -253.546875 L 16.984375 -271.640625 L 108.265625 -277.765625 L 112.15625 -273.875 L 112.15625 -235.1875 L 113.5625 -235.1875 C 125.0625 -250.207031 137.859375 -261.613281 151.953125 -269.40625 C 166.054688 -277.207031 178.957031 -281.109375 190.65625 -281.109375 C 202.34375 -281.109375 211.847656 -277.300781 219.171875 -269.6875 C 226.503906 -262.082031 230.171875 -251.878906 230.171875 -239.078125 Z M 230.171875 -239.078125 "/></g></g></g><g fill="#1f3f75" fill-opacity="0.4"><g transform="translate(3766.236808, 718.107794)"><g><path d="M 189.53125 -11.96875 C 177.476562 -6.957031 166.066406 -2.738281 155.296875 0.6875 C 144.535156 4.125 131.363281 5.84375 115.78125 5.84375 C 92.769531 5.84375 76.578125 0.046875 67.203125 -11.546875 C 57.835938 -23.148438 53.15625 -39.523438 53.15625 -60.671875 L 53.15625 -246.59375 L 3.625 -246.59375 L 3.625 -273.3125 L 54.265625 -273.3125 L 54.265625 -358.75 L 104.921875 -358.75 L 104.921875 -273.3125 L 183.6875 -273.3125 L 183.6875 -246.59375 L 105.484375 -246.59375 L 105.484375 -93.234375 C 105.484375 -81.734375 105.898438 -72.128906 106.734375 -64.421875 C 107.566406 -56.722656 109.5625 -50 112.71875 -44.25 C 115.6875 -38.875 120.140625 -34.789062 126.078125 -32 C 132.015625 -29.21875 139.992188 -27.828125 150.015625 -27.828125 C 154.648438 -27.828125 161.46875 -28.242188 170.46875 -29.078125 C 179.46875 -29.921875 185.820312 -30.988281 189.53125 -32.28125 Z M 189.53125 -11.96875 "/></g></g></g><g fill="#1f3f75" fill-opacity="1"><g transform="translate(3741.046194, 692.91712)"><g><path d="M 189.53125 -11.96875 C 177.476562 -6.957031 166.066406 -2.738281 155.296875 0.6875 C 144.535156 4.125 131.363281 5.84375 115.78125 5.84375 C 92.769531 5.84375 76.578125 0.046875 67.203125 -11.546875 C 57.835938 -23.148438 53.15625 -39.523438 53.15625 -60.671875 L 53.15625 -246.59375 L 3.625 -246.59375 L 3.625 -273.3125 L 54.265625 -273.3125 L 54.265625 -358.75 L 104.921875 -358.75 L 104.921875 -273.3125 L 183.6875 -273.3125 L 183.6875 -246.59375 L 105.484375 -246.59375 L 105.484375 -93.234375 C 105.484375 -81.734375 105.898438 -72.128906 106.734375 -64.421875 C 107.566406 -56.722656 109.5625 -50 112.71875 -44.25 C 115.6875 -38.875 120.140625 -34.789062 126.078125 -32 C 132.015625 -29.21875 139.992188 -27.828125 150.015625 -27.828125 C 154.648438 -27.828125 161.46875 -28.242188 170.46875 -29.078125 C 179.46875 -29.921875 185.820312 -30.988281 189.53125 -32.28125 Z M 189.53125 -11.96875 "/></g></g></g><g fill="#e91e63" fill-opacity="0.4"><g transform="translate(2592.254407, 696.814535)"><g><path d="M 447.125 0 L 325 0 L 325 -16.765625 C 328.894531 -17.097656 332.832031 -17.429688 336.8125 -17.765625 C 340.789062 -18.109375 344.300781 -18.789062 347.34375 -19.8125 C 352.082031 -21.332031 355.59375 -23.992188 357.875 -27.796875 C 360.164062 -31.609375 361.3125 -36.5625 361.3125 -42.65625 L 361.3125 -171.890625 C 361.3125 -189.492188 357.289062 -203.078125 349.25 -212.640625 C 341.207031 -222.210938 331.175781 -227 319.15625 -227 C 310.863281 -227 303.078125 -225.726562 295.796875 -223.1875 C 288.523438 -220.644531 281.84375 -217.085938 275.75 -212.515625 C 270.832031 -208.796875 266.722656 -204.773438 263.421875 -200.453125 C 260.128906 -196.140625 257.632812 -192.546875 255.9375 -189.671875 L 255.9375 -45.203125 C 255.9375 -39.273438 256.953125 -34.40625 258.984375 -30.59375 C 261.015625 -26.789062 264.484375 -23.875 269.390625 -21.84375 C 273.285156 -20.3125 276.796875 -19.164062 279.921875 -18.40625 C 283.054688 -17.644531 287.164062 -17.097656 292.25 -16.765625 L 292.25 0 L 172.65625 0 L 172.65625 -16.765625 C 176.550781 -17.097656 180.316406 -17.429688 183.953125 -17.765625 C 187.597656 -18.109375 190.941406 -18.789062 193.984375 -19.8125 C 198.722656 -21.332031 202.234375 -23.992188 204.515625 -27.796875 C 206.804688 -31.609375 207.953125 -36.5625 207.953125 -42.65625 L 207.953125 -171.890625 C 207.953125 -189.492188 203.929688 -203.078125 195.890625 -212.640625 C 187.847656 -222.210938 177.816406 -227 165.796875 -227 C 157.503906 -227 149.71875 -225.6875 142.4375 -223.0625 C 135.164062 -220.4375 128.484375 -216.835938 122.390625 -212.265625 C 117.472656 -208.546875 113.320312 -204.359375 109.9375 -199.703125 C 106.550781 -195.046875 104.015625 -191.53125 102.328125 -189.15625 L 102.328125 -45.703125 C 102.328125 -39.953125 103.507812 -35.128906 105.875 -31.234375 C 108.25 -27.335938 111.804688 -24.375 116.546875 -22.34375 C 120.097656 -20.65625 123.734375 -19.382812 127.453125 -18.53125 C 131.179688 -17.6875 135.332031 -17.097656 139.90625 -16.765625 L 139.90625 0 L 18.28125 0 L 18.28125 -16.765625 C 22.175781 -17.097656 26.195312 -17.429688 30.34375 -17.765625 C 34.488281 -18.109375 38.085938 -18.789062 41.140625 -19.8125 C 45.878906 -21.332031 49.390625 -23.992188 51.671875 -27.796875 C 53.953125 -31.609375 55.09375 -36.5625 55.09375 -42.65625 L 55.09375 -198.296875 C 55.09375 -203.710938 53.863281 -208.578125 51.40625 -212.890625 C 48.957031 -217.210938 45.535156 -220.898438 41.140625 -223.953125 C 37.921875 -225.984375 33.941406 -227.628906 29.203125 -228.890625 C 24.460938 -230.160156 19.550781 -230.96875 14.46875 -231.3125 L 14.46875 -247.8125 L 98.265625 -253.40625 L 101.8125 -249.84375 L 101.8125 -214.046875 L 103.59375 -214.046875 C 107.820312 -218.273438 112.984375 -223.265625 119.078125 -229.015625 C 125.171875 -234.773438 130.84375 -239.429688 136.09375 -242.984375 C 142.019531 -247.046875 149.425781 -250.429688 158.3125 -253.140625 C 167.195312 -255.847656 176.800781 -257.203125 187.125 -257.203125 C 203.375 -257.203125 217.335938 -252.84375 229.015625 -244.125 C 240.703125 -235.414062 249.082031 -224.878906 254.15625 -212.515625 C 260.25 -218.441406 265.625 -223.644531 270.28125 -228.125 C 274.9375 -232.613281 281.070312 -237.398438 288.6875 -242.484375 C 295.125 -246.878906 302.703125 -250.429688 311.421875 -253.140625 C 320.140625 -255.847656 329.828125 -257.203125 340.484375 -257.203125 C 361.648438 -257.203125 378.410156 -250.257812 390.765625 -236.375 C 403.117188 -222.5 409.296875 -201.175781 409.296875 -172.40625 L 409.296875 -45.203125 C 409.296875 -39.273438 410.3125 -34.40625 412.34375 -30.59375 C 414.375 -26.789062 417.84375 -23.875 422.75 -21.84375 C 426.644531 -20.3125 430.492188 -19.164062 434.296875 -18.40625 C 438.109375 -17.644531 442.382812 -17.097656 447.125 -16.765625 Z M 447.125 0 "/></g></g></g><g fill="#e91e63" fill-opacity="1"><g transform="translate(2569.273472, 673.83351)"><g><path d="M 447.125 0 L 325 0 L 325 -16.765625 C 328.894531 -17.097656 332.832031 -17.429688 336.8125 -17.765625 C 340.789062 -18.109375 344.300781 -18.789062 347.34375 -19.8125 C 352.082031 -21.332031 355.59375 -23.992188 357.875 -27.796875 C 360.164062 -31.609375 361.3125 -36.5625 361.3125 -42.65625 L 361.3125 -171.890625 C 361.3125 -189.492188 357.289062 -203.078125 349.25 -212.640625 C 341.207031 -222.210938 331.175781 -227 319.15625 -227 C 310.863281 -227 303.078125 -225.726562 295.796875 -223.1875 C 288.523438 -220.644531 281.84375 -217.085938 275.75 -212.515625 C 270.832031 -208.796875 266.722656 -204.773438 263.421875 -200.453125 C 260.128906 -196.140625 257.632812 -192.546875 255.9375 -189.671875 L 255.9375 -45.203125 C 255.9375 -39.273438 256.953125 -34.40625 258.984375 -30.59375 C 261.015625 -26.789062 264.484375 -23.875 269.390625 -21.84375 C 273.285156 -20.3125 276.796875 -19.164062 279.921875 -18.40625 C 283.054688 -17.644531 287.164062 -17.097656 292.25 -16.765625 L 292.25 0 L 172.65625 0 L 172.65625 -16.765625 C 176.550781 -17.097656 180.316406 -17.429688 183.953125 -17.765625 C 187.597656 -18.109375 190.941406 -18.789062 193.984375 -19.8125 C 198.722656 -21.332031 202.234375 -23.992188 204.515625 -27.796875 C 206.804688 -31.609375 207.953125 -36.5625 207.953125 -42.65625 L 207.953125 -171.890625 C 207.953125 -189.492188 203.929688 -203.078125 195.890625 -212.640625 C 187.847656 -222.210938 177.816406 -227 165.796875 -227 C 157.503906 -227 149.71875 -225.6875 142.4375 -223.0625 C 135.164062 -220.4375 128.484375 -216.835938 122.390625 -212.265625 C 117.472656 -208.546875 113.320312 -204.359375 109.9375 -199.703125 C 106.550781 -195.046875 104.015625 -191.53125 102.328125 -189.15625 L 102.328125 -45.703125 C 102.328125 -39.953125 103.507812 -35.128906 105.875 -31.234375 C 108.25 -27.335938 111.804688 -24.375 116.546875 -22.34375 C 120.097656 -20.65625 123.734375 -19.382812 127.453125 -18.53125 C 131.179688 -17.6875 135.332031 -17.097656 139.90625 -16.765625 L 139.90625 0 L 18.28125 0 L 18.28125 -16.765625 C 22.175781 -17.097656 26.195312 -17.429688 30.34375 -17.765625 C 34.488281 -18.109375 38.085938 -18.789062 41.140625 -19.8125 C 45.878906 -21.332031 49.390625 -23.992188 51.671875 -27.796875 C 53.953125 -31.609375 55.09375 -36.5625 55.09375 -42.65625 L 55.09375 -198.296875 C 55.09375 -203.710938 53.863281 -208.578125 51.40625 -212.890625 C 48.957031 -217.210938 45.535156 -220.898438 41.140625 -223.953125 C 37.921875 -225.984375 33.941406 -227.628906 29.203125 -228.890625 C 24.460938 -230.160156 19.550781 -230.96875 14.46875 -231.3125 L 14.46875 -247.8125 L 98.265625 -253.40625 L 101.8125 -249.84375 L 101.8125 -214.046875 L 103.59375 -214.046875 C 107.820312 -218.273438 112.984375 -223.265625 119.078125 -229.015625 C 125.171875 -234.773438 130.84375 -239.429688 136.09375 -242.984375 C 142.019531 -247.046875 149.425781 -250.429688 158.3125 -253.140625 C 167.195312 -255.847656 176.800781 -257.203125 187.125 -257.203125 C 203.375 -257.203125 217.335938 -252.84375 229.015625 -244.125 C 240.703125 -235.414062 249.082031 -224.878906 254.15625 -212.515625 C 260.25 -218.441406 265.625 -223.644531 270.28125 -228.125 C 274.9375 -232.613281 281.070312 -237.398438 288.6875 -242.484375 C 295.125 -246.878906 302.703125 -250.429688 311.421875 -253.140625 C 320.140625 -255.847656 329.828125 -257.203125 340.484375 -257.203125 C 361.648438 -257.203125 378.410156 -250.257812 390.765625 -236.375 C 403.117188 -222.5 409.296875 -201.175781 409.296875 -172.40625 L 409.296875 -45.203125 C 409.296875 -39.273438 410.3125 -34.40625 412.34375 -30.59375 C 414.375 -26.789062 417.84375 -23.875 422.75 -21.84375 C 426.644531 -20.3125 430.492188 -19.164062 434.296875 -18.40625 C 438.109375 -17.644531 442.382812 -17.097656 447.125 -16.765625 Z M 447.125 0 "/></g></g></g><g fill="#1e3a6d" fill-opacity="1"><g transform="translate(1025.54047, 958.916609)"><g><path d="M 63.5625 -20.15625 L 24.046875 -20.15625 L 16.765625 0 L 4.296875 0 L 37.046875 -90.09375 L 50.703125 -90.09375 L 83.328125 0 L 70.84375 0 Z M 60.1875 -29.765625 L 43.8125 -75.53125 L 27.4375 -29.765625 Z M 60.1875 -29.765625 "/></g></g></g><g fill="#1e3a6d" fill-opacity="1"><g transform="translate(1171.79009, 958.916609)"><g><path d="M 44.71875 -72.546875 C 53.382812 -72.546875 60.40625 -69.921875 65.78125 -64.671875 C 71.15625 -59.429688 73.84375 -51.867188 73.84375 -41.984375 L 73.84375 0 L 62.140625 0 L 62.140625 -40.296875 C 62.140625 -47.398438 60.363281 -52.835938 56.8125 -56.609375 C 53.257812 -60.378906 48.40625 -62.265625 42.25 -62.265625 C 36.007812 -62.265625 31.046875 -60.3125 27.359375 -56.40625 C 23.679688 -52.507812 21.84375 -46.835938 21.84375 -39.390625 L 21.84375 0 L 10.015625 0 L 10.015625 -71.234375 L 21.84375 -71.234375 L 21.84375 -61.09375 C 24.175781 -64.738281 27.359375 -67.554688 31.390625 -69.546875 C 35.421875 -71.546875 39.863281 -72.546875 44.71875 -72.546875 Z M 44.71875 -72.546875 "/></g></g></g><g fill="#1e3a6d" fill-opacity="1"><g transform="translate(1313.61984, 958.916609)"><g><path d="M 71.375 -71.234375 L 28.46875 33.546875 L 16.25 33.546875 L 30.296875 -0.78125 L 1.5625 -71.234375 L 14.6875 -71.234375 L 37.046875 -13.515625 L 59.15625 -71.234375 Z M 71.375 -71.234375 "/></g></g></g><g fill="#1e3a6d" fill-opacity="1"><g transform="translate(1445.439904, 958.916609)"><g><path d="M 104.90625 -71.234375 L 82.6875 0 L 70.453125 0 L 53.296875 -56.546875 L 36.140625 0 L 23.921875 0 L 1.5625 -71.234375 L 13.65625 -71.234375 L 30.03125 -11.4375 L 47.703125 -71.234375 L 59.796875 -71.234375 L 77.09375 -11.3125 L 93.203125 -71.234375 Z M 104.90625 -71.234375 "/></g></g></g><g fill="#1e3a6d" fill-opacity="1"><g transform="translate(1610.668955, 958.916609)"><g><path d="M 45.375 -72.546875 C 50.75 -72.546875 55.601562 -71.394531 59.9375 -69.09375 C 64.269531 -66.800781 67.671875 -63.359375 70.140625 -58.765625 C 72.609375 -54.171875 73.84375 -48.578125 73.84375 -41.984375 L 73.84375 0 L 62.140625 0 L 62.140625 -40.296875 C 62.140625 -47.398438 60.363281 -52.835938 56.8125 -56.609375 C 53.257812 -60.378906 48.40625 -62.265625 42.25 -62.265625 C 36.007812 -62.265625 31.046875 -60.3125 27.359375 -56.40625 C 23.679688 -52.507812 21.84375 -46.835938 21.84375 -39.390625 L 21.84375 0 L 10.015625 0 L 10.015625 -96.203125 L 21.84375 -96.203125 L 21.84375 -61.09375 C 24.175781 -64.738281 27.398438 -67.554688 31.515625 -69.546875 C 35.640625 -71.546875 40.257812 -72.546875 45.375 -72.546875 Z M 45.375 -72.546875 "/></g></g></g><g fill="#1e3a6d" fill-opacity="1"><g transform="translate(1752.498683, 958.916609)"><g><path d="M 75.015625 -38.34375 C 75.015625 -36.09375 74.882812 -33.710938 74.625 -31.203125 L 17.6875 -31.203125 C 18.113281 -24.179688 20.515625 -18.695312 24.890625 -14.75 C 29.265625 -10.8125 34.570312 -8.84375 40.8125 -8.84375 C 45.925781 -8.84375 50.195312 -10.03125 53.625 -12.40625 C 57.050781 -14.789062 59.457031 -17.976562 60.84375 -21.96875 L 73.578125 -21.96875 C 71.671875 -15.125 67.859375 -9.554688 62.140625 -5.265625 C 56.421875 -0.972656 49.3125 1.171875 40.8125 1.171875 C 34.0625 1.171875 28.019531 -0.34375 22.6875 -3.375 C 17.351562 -6.414062 13.171875 -10.726562 10.140625 -16.3125 C 7.109375 -21.90625 5.59375 -28.382812 5.59375 -35.75 C 5.59375 -43.113281 7.066406 -49.566406 10.015625 -55.109375 C 12.960938 -60.660156 17.097656 -64.929688 22.421875 -67.921875 C 27.753906 -70.910156 33.882812 -72.40625 40.8125 -72.40625 C 47.570312 -72.40625 53.550781 -70.929688 58.75 -67.984375 C 63.957031 -65.035156 67.96875 -60.984375 70.78125 -55.828125 C 73.601562 -50.671875 75.015625 -44.84375 75.015625 -38.34375 Z M 62.796875 -40.8125 C 62.796875 -45.320312 61.796875 -49.203125 59.796875 -52.453125 C 57.804688 -55.703125 55.097656 -58.171875 51.671875 -59.859375 C 48.253906 -61.554688 44.460938 -62.40625 40.296875 -62.40625 C 34.316406 -62.40625 29.222656 -60.492188 25.015625 -56.671875 C 20.816406 -52.859375 18.414062 -47.570312 17.8125 -40.8125 Z M 62.796875 -40.8125 "/></g></g></g><g fill="#1e3a6d" fill-opacity="1"><g transform="translate(1891.728498, 958.916609)"><g><path d="M 21.84375 -59.671875 C 23.914062 -63.742188 26.878906 -66.90625 30.734375 -69.15625 C 34.597656 -71.414062 39.300781 -72.546875 44.84375 -72.546875 L 44.84375 -60.3125 L 41.734375 -60.3125 C 28.472656 -60.3125 21.84375 -53.117188 21.84375 -38.734375 L 21.84375 0 L 10.015625 0 L 10.015625 -71.234375 L 21.84375 -71.234375 Z M 21.84375 -59.671875 "/></g></g></g><g fill="#1e3a6d" fill-opacity="1"><g transform="translate(1998.849308, 958.916609)"><g><path d="M 75.015625 -38.34375 C 75.015625 -36.09375 74.882812 -33.710938 74.625 -31.203125 L 17.6875 -31.203125 C 18.113281 -24.179688 20.515625 -18.695312 24.890625 -14.75 C 29.265625 -10.8125 34.570312 -8.84375 40.8125 -8.84375 C 45.925781 -8.84375 50.195312 -10.03125 53.625 -12.40625 C 57.050781 -14.789062 59.457031 -17.976562 60.84375 -21.96875 L 73.578125 -21.96875 C 71.671875 -15.125 67.859375 -9.554688 62.140625 -5.265625 C 56.421875 -0.972656 49.3125 1.171875 40.8125 1.171875 C 34.0625 1.171875 28.019531 -0.34375 22.6875 -3.375 C 17.351562 -6.414062 13.171875 -10.726562 10.140625 -16.3125 C 7.109375 -21.90625 5.59375 -28.382812 5.59375 -35.75 C 5.59375 -43.113281 7.066406 -49.566406 10.015625 -55.109375 C 12.960938 -60.660156 17.097656 -64.929688 22.421875 -67.921875 C 27.753906 -70.910156 33.882812 -72.40625 40.8125 -72.40625 C 47.570312 -72.40625 53.550781 -70.929688 58.75 -67.984375 C 63.957031 -65.035156 67.96875 -60.984375 70.78125 -55.828125 C 73.601562 -50.671875 75.015625 -44.84375 75.015625 -38.34375 Z M 62.796875 -40.8125 C 62.796875 -45.320312 61.796875 -49.203125 59.796875 -52.453125 C 57.804688 -55.703125 55.097656 -58.171875 51.671875 -59.859375 C 48.253906 -61.554688 44.460938 -62.40625 40.296875 -62.40625 C 34.316406 -62.40625 29.222656 -60.492188 25.015625 -56.671875 C 20.816406 -52.859375 18.414062 -47.570312 17.8125 -40.8125 Z M 62.796875 -40.8125 "/></g></g></g><g fill="#1e3a6d" fill-opacity="1"><g transform="translate(2138.079124, 958.916609)"><g/></g></g><g fill="#1e3a6d" fill-opacity="1"><g transform="translate(2231.420333, 958.916609)"><g><path d="M 79.5625 0 L 67.734375 -11.953125 C 63.304688 -7.359375 58.578125 -3.957031 53.546875 -1.75 C 48.523438 0.457031 42.851562 1.5625 36.53125 1.5625 C 30.289062 1.5625 24.765625 0.4375 19.953125 -1.8125 C 15.140625 -4.070312 11.410156 -7.28125 8.765625 -11.4375 C 6.128906 -15.601562 4.8125 -20.457031 4.8125 -26 C 4.8125 -32.320312 6.609375 -37.890625 10.203125 -42.703125 C 13.796875 -47.515625 19.101562 -51.304688 26.125 -54.078125 C 23.351562 -57.367188 21.359375 -60.398438 20.140625 -63.171875 C 18.929688 -65.953125 18.328125 -68.988281 18.328125 -72.28125 C 18.328125 -76.09375 19.300781 -79.535156 21.25 -82.609375 C 23.207031 -85.691406 26.003906 -88.097656 29.640625 -89.828125 C 33.273438 -91.566406 37.476562 -92.4375 42.25 -92.4375 C 46.925781 -92.4375 51 -91.523438 54.46875 -89.703125 C 57.9375 -87.878906 60.535156 -85.34375 62.265625 -82.09375 C 64.003906 -78.84375 64.785156 -75.222656 64.609375 -71.234375 L 52.78125 -71.234375 C 52.863281 -74.785156 51.863281 -77.582031 49.78125 -79.625 C 47.707031 -81.664062 45.023438 -82.6875 41.734375 -82.6875 C 38.265625 -82.6875 35.46875 -81.707031 33.34375 -79.75 C 31.21875 -77.800781 30.15625 -75.3125 30.15625 -72.28125 C 30.15625 -69.675781 30.867188 -67.160156 32.296875 -64.734375 C 33.734375 -62.304688 36.140625 -59.316406 39.515625 -55.765625 L 66.5625 -28.59375 L 68.90625 -32.234375 L 77.734375 -47.0625 L 90.484375 -47.0625 L 79.8125 -28.59375 C 78.34375 -26 76.613281 -23.269531 74.625 -20.40625 L 95.03125 0 Z M 36.53125 -8.578125 C 41.207031 -8.578125 45.429688 -9.488281 49.203125 -11.3125 C 52.972656 -13.132812 56.550781 -15.953125 59.9375 -19.765625 L 33.28125 -46.546875 C 22.1875 -42.296875 16.640625 -35.578125 16.640625 -26.390625 C 16.640625 -21.273438 18.476562 -17.023438 22.15625 -13.640625 C 25.84375 -10.265625 30.632812 -8.578125 36.53125 -8.578125 Z M 36.53125 -8.578125 "/></g></g></g><g fill="#1e3a6d" fill-opacity="1"><g transform="translate(2386.119722, 958.916609)"><g/></g></g><g fill="#1e3a6d" fill-opacity="1"><g transform="translate(2479.460931, 958.916609)"><g><path d="M 63.5625 -20.15625 L 24.046875 -20.15625 L 16.765625 0 L 4.296875 0 L 37.046875 -90.09375 L 50.703125 -90.09375 L 83.328125 0 L 70.84375 0 Z M 60.1875 -29.765625 L 43.8125 -75.53125 L 27.4375 -29.765625 Z M 60.1875 -29.765625 "/></g></g></g><g fill="#1e3a6d" fill-opacity="1"><g transform="translate(2625.710551, 958.916609)"><g><path d="M 44.71875 -72.546875 C 53.382812 -72.546875 60.40625 -69.921875 65.78125 -64.671875 C 71.15625 -59.429688 73.84375 -51.867188 73.84375 -41.984375 L 73.84375 0 L 62.140625 0 L 62.140625 -40.296875 C 62.140625 -47.398438 60.363281 -52.835938 56.8125 -56.609375 C 53.257812 -60.378906 48.40625 -62.265625 42.25 -62.265625 C 36.007812 -62.265625 31.046875 -60.3125 27.359375 -56.40625 C 23.679688 -52.507812 21.84375 -46.835938 21.84375 -39.390625 L 21.84375 0 L 10.015625 0 L 10.015625 -71.234375 L 21.84375 -71.234375 L 21.84375 -61.09375 C 24.175781 -64.738281 27.359375 -67.554688 31.390625 -69.546875 C 35.421875 -71.546875 39.863281 -72.546875 44.71875 -72.546875 Z M 44.71875 -72.546875 "/></g></g></g><g fill="#1e3a6d" fill-opacity="1"><g transform="translate(2767.540376, 958.916609)"><g><path d="M 71.375 -71.234375 L 28.46875 33.546875 L 16.25 33.546875 L 30.296875 -0.78125 L 1.5625 -71.234375 L 14.6875 -71.234375 L 37.046875 -13.515625 L 59.15625 -71.234375 Z M 71.375 -71.234375 "/></g></g></g><g fill="#1e3a6d" fill-opacity="1"><g transform="translate(2899.360372, 958.916609)"><g><path d="M 24.4375 -61.484375 L 24.4375 -19.5 C 24.4375 -16.03125 25.171875 -13.582031 26.640625 -12.15625 C 28.117188 -10.726562 30.675781 -10.015625 34.3125 -10.015625 L 43.03125 -10.015625 L 43.03125 0 L 32.375 0 C 25.78125 0 20.835938 -1.515625 17.546875 -4.546875 C 14.253906 -7.578125 12.609375 -12.5625 12.609375 -19.5 L 12.609375 -61.484375 L 3.375 -61.484375 L 3.375 -71.234375 L 12.609375 -71.234375 L 12.609375 -89.1875 L 24.4375 -89.1875 L 24.4375 -71.234375 L 43.03125 -71.234375 L 43.03125 -61.484375 Z M 24.4375 -61.484375 "/></g></g></g><g fill="#1e3a6d" fill-opacity="1"><g transform="translate(3005.311229, 958.916609)"><g><path d="M 16.125 -82.8125 C 13.863281 -82.8125 11.953125 -83.585938 10.390625 -85.140625 C 8.835938 -86.703125 8.0625 -88.613281 8.0625 -90.875 C 8.0625 -93.125 8.835938 -95.03125 10.390625 -96.59375 C 11.953125 -98.15625 13.863281 -98.9375 16.125 -98.9375 C 18.289062 -98.9375 20.128906 -98.15625 21.640625 -96.59375 C 23.160156 -95.03125 23.921875 -93.125 23.921875 -90.875 C 23.921875 -88.613281 23.160156 -86.703125 21.640625 -85.140625 C 20.128906 -83.585938 18.289062 -82.8125 16.125 -82.8125 Z M 21.84375 -71.234375 L 21.84375 0 L 10.015625 0 L 10.015625 -71.234375 Z M 21.84375 -71.234375 "/></g></g></g><g fill="#1e3a6d" fill-opacity="1"><g transform="translate(3095.922427, 958.916609)"><g><path d="M 95.6875 -72.546875 C 101.226562 -72.546875 106.164062 -71.394531 110.5 -69.09375 C 114.832031 -66.800781 118.253906 -63.359375 120.765625 -58.765625 C 123.285156 -54.171875 124.546875 -48.578125 124.546875 -41.984375 L 124.546875 0 L 112.84375 0 L 112.84375 -40.296875 C 112.84375 -47.398438 111.085938 -52.835938 107.578125 -56.609375 C 104.066406 -60.378906 99.320312 -62.265625 93.34375 -62.265625 C 87.1875 -62.265625 82.285156 -60.289062 78.640625 -56.34375 C 75.003906 -52.40625 73.1875 -46.710938 73.1875 -39.265625 L 73.1875 0 L 61.484375 0 L 61.484375 -40.296875 C 61.484375 -47.398438 59.726562 -52.835938 56.21875 -56.609375 C 52.707031 -60.378906 47.960938 -62.265625 41.984375 -62.265625 C 35.835938 -62.265625 30.941406 -60.289062 27.296875 -56.34375 C 23.660156 -52.40625 21.84375 -46.710938 21.84375 -39.265625 L 21.84375 0 L 10.015625 0 L 10.015625 -71.234375 L 21.84375 -71.234375 L 21.84375 -60.96875 C 24.175781 -64.695312 27.316406 -67.554688 31.265625 -69.546875 C 35.210938 -71.546875 39.566406 -72.546875 44.328125 -72.546875 C 50.304688 -72.546875 55.59375 -71.203125 60.1875 -68.515625 C 64.78125 -65.828125 68.203125 -61.882812 70.453125 -56.6875 C 72.453125 -61.707031 75.75 -65.601562 80.34375 -68.375 C 84.9375 -71.15625 90.050781 -72.546875 95.6875 -72.546875 Z M 95.6875 -72.546875 "/></g></g></g><g fill="#1e3a6d" fill-opacity="1"><g transform="translate(3288.450673, 958.916609)"><g><path d="M 75.015625 -38.34375 C 75.015625 -36.09375 74.882812 -33.710938 74.625 -31.203125 L 17.6875 -31.203125 C 18.113281 -24.179688 20.515625 -18.695312 24.890625 -14.75 C 29.265625 -10.8125 34.570312 -8.84375 40.8125 -8.84375 C 45.925781 -8.84375 50.195312 -10.03125 53.625 -12.40625 C 57.050781 -14.789062 59.457031 -17.976562 60.84375 -21.96875 L 73.578125 -21.96875 C 71.671875 -15.125 67.859375 -9.554688 62.140625 -5.265625 C 56.421875 -0.972656 49.3125 1.171875 40.8125 1.171875 C 34.0625 1.171875 28.019531 -0.34375 22.6875 -3.375 C 17.351562 -6.414062 13.171875 -10.726562 10.140625 -16.3125 C 7.109375 -21.90625 5.59375 -28.382812 5.59375 -35.75 C 5.59375 -43.113281 7.066406 -49.566406 10.015625 -55.109375 C 12.960938 -60.660156 17.097656 -64.929688 22.421875 -67.921875 C 27.753906 -70.910156 33.882812 -72.40625 40.8125 -72.40625 C 47.570312 -72.40625 53.550781 -70.929688 58.75 -67.984375 C 63.957031 -65.035156 67.96875 -60.984375 70.78125 -55.828125 C 73.601562 -50.671875 75.015625 -44.84375 75.015625 -38.34375 Z M 62.796875 -40.8125 C 62.796875 -45.320312 61.796875 -49.203125 59.796875 -52.453125 C 57.804688 -55.703125 55.097656 -58.171875 51.671875 -59.859375 C 48.253906 -61.554688 44.460938 -62.40625 40.296875 -62.40625 C 34.316406 -62.40625 29.222656 -60.492188 25.015625 -56.671875 C 20.816406 -52.859375 18.414062 -47.570312 17.8125 -40.8125 Z M 62.796875 -40.8125 "/></g></g></g></svg>